<svg aria-hidden="true" style="width:0;height:0;position:absolute;overflow:hidden" xmlns="http://www.w3.org/2000/svg"><defs><symbol id="icon-menu" viewBox="0 0 32 32"><path fill="#fff" style="fill:var(--color1,#fff)" d="M2.667 7.993c0-.733.595-1.327 1.327-1.327h10.68a1.326 1.326 0 0 1 0 2.654H3.994a1.326 1.326 0 0 1-1.327-1.327zm0 8.007c0-.733.595-1.327 1.327-1.327h24.013a1.326 1.326 0 0 1 0 2.654H3.994A1.326 1.326 0 0 1 2.667 16zm1.326 6.68a1.326 1.326 0 0 0 0 2.654h16.013a1.326 1.326 0 0 0 0-2.654H3.993z"/></symbol><symbol id="icon-close" viewBox="0 0 32 32"><path fill="none" stroke="#fff" style="stroke:var(--color1,#fff)" stroke-linejoin="round" stroke-linecap="round" stroke-width="1.733" d="M24 8 8 24M8 8l16 16"/></symbol><symbol id="icon-prev" viewBox="0 0 32 32"><path fill="none" stroke="#fff" style="stroke:var(--color1,#fff)" stroke-width=".941" d="M8.471.471H23.53a8 8 0 0 1 8 8V23.53a8 8 0 0 1-8 8H8.471a8 8 0 0 1-8-8V8.471a8 8 0 0 1 8-8z"/><path fill="none" stroke="#fff" style="stroke:var(--color1,#fff)" stroke-linejoin="round" stroke-linecap="round" stroke-width=".941" d="M18.118 20.235 13.883 16l4.235-4.235"/></symbol><symbol id="icon-next" viewBox="0 0 32 32"><path fill="none" stroke="#fff" style="stroke:var(--color1,#fff)" stroke-width=".941" d="M8.471.471H23.53a8 8 0 0 1 8 8V23.53a8 8 0 0 1-8 8H8.471a8 8 0 0 1-8-8V8.471a8 8 0 0 1 8-8z"/><path fill="none" stroke="#fff" style="stroke:var(--color1,#fff)" stroke-linejoin="round" stroke-linecap="round" stroke-width=".941" d="M13.882 20.235 18.117 16l-4.235-4.235"/></symbol><symbol id="icon-vector-3" viewBox="0 0 640 32"><path fill="none" stroke="#fff" style="stroke:var(--color1,#fff)" stroke-width="16" d="M0 16h640"/></symbol><symbol id="icon-youtube" viewBox="0 0 32 32"><path d="M12.662 9.509a1.335 1.335 0 0 0-1.995 1.157v10.667a1.333 1.333 0 0 0 1.995 1.157l9.333-5.333a1.334 1.334 0 0 0 0-2.316l-9.333-5.333zM18.646 16l-5.313 3.036v-6.072L18.646 16z"/><path d="M0 16c0 5 0 7.499 1.273 9.252a6.658 6.658 0 0 0 1.475 1.475C4.5 28 7 28 12 28h8c5 0 7.499 0 9.252-1.273a6.658 6.658 0 0 0 1.475-1.475C32 23.5 32 21 32 16s0-7.499-1.273-9.252a6.658 6.658 0 0 0-1.475-1.475C27.5 4 25 4 20 4h-8C7 4 4.501 4 2.748 5.273a6.658 6.658 0 0 0-1.475 1.475C0 8.5 0 11 0 16zm12-9.333h8c2.559 0 4.264.004 5.556.144 1.242.135 1.782.369 2.128.62.339.247.638.545.885.885.251.346.486.886.62 2.128.14 1.292.144 2.997.144 5.556s-.004 4.264-.144 5.556c-.135 1.242-.369 1.782-.62 2.128a4.016 4.016 0 0 1-.885.885c-.346.251-.886.486-2.128.62-1.292.14-2.997.144-5.556.144h-8c-2.559 0-4.264-.004-5.556-.144-1.242-.135-1.782-.369-2.128-.62a3.995 3.995 0 0 1-.885-.885c-.251-.346-.486-.886-.62-2.128-.14-1.292-.144-2.997-.144-5.556s.004-4.264.144-5.556c.135-1.242.369-1.782.62-2.128.247-.34.545-.638.885-.885.346-.251.886-.486 2.128-.62 1.292-.14 2.997-.144 5.556-.144z"/></symbol><symbol id="icon-twitter" viewBox="0 0 32 32"><path d="M26.377 5.224c.465-.11.789-.218 1.054-.332.372-.159.68-.35 1.168-.672a1.332 1.332 0 0 1 2.067 1.113c0 1.441-.18 2.622-.595 3.662-.35.874-.841 1.585-1.429 2.231-.248 4.484-1.546 8.006-3.531 10.674-2.057 2.765-4.793 4.536-7.678 5.528-2.876.989-5.915 1.21-8.638.875-2.705-.333-5.205-1.228-6.948-2.583a1.335 1.335 0 0 1 1.007-2.373c1.715.245 3.365-.145 4.722-.702a8.213 8.213 0 0 1-.753-.465c-1.237-.856-2.235-2.018-2.684-2.917a1.331 1.331 0 0 1 .394-1.664c-1.806-1.49-2.535-3.551-2.535-4.932a1.332 1.332 0 0 1 .964-1.281 9.86 9.86 0 0 1-.32-1.182c-.354-1.716-.323-3.652.062-5.193a1.333 1.333 0 0 1 2.449-.343C6.59 7.158 9.24 8.68 11.706 9.582c1.16.424 2.233.694 3.038.86.174-1.627.628-2.97 1.326-4.036a6.119 6.119 0 0 1 3.582-2.61c2.377-.64 5.014.089 6.724 1.428zm-12.046 7.854a24.506 24.506 0 0 1-3.539-.992c-1.81-.662-3.911-1.693-5.671-3.291.032.294.076.586.135.869.295 1.428.843 2.228 1.34 2.477.608.304.89 1.017.654 1.655-.319.864-1.16.934-1.923.744.614.921 1.718 1.838 3.559 2.145a1.333 1.333 0 0 1 .042 2.623l-1.161.232c.178.154.37.306.575.447.929.643 1.862.921 2.668.719a1.332 1.332 0 0 1 1.177 2.318c-.859.715-1.861 1.288-2.866 1.764-.472.223-.999.444-1.572.638.44.094.899.171 1.372.229 2.361.29 4.988.095 7.445-.75 2.449-.842 4.712-2.321 6.405-4.597 1.691-2.273 2.871-5.419 3.029-9.691.012-.336.152-.655.39-.893.599-.6 1.095-1.287 1.339-2.105-.427.133-.907.248-1.479.357a1.331 1.331 0 0 1-1.193-.367c-1.019-1.019-3.035-1.69-4.711-1.239a3.45 3.45 0 0 0-2.043 1.494c-.549.84-.97 2.149-.97 4.134 0 .377-.16.737-.44.99-.664.599-1.781.245-2.562.088z"/></symbol><symbol id="icon-instagram" viewBox="0 0 32 32"><path d="M16 24a8 8 0 1 1 0-16 8 8 0 0 1 0 16zm0-2.667a5.333 5.333 0 1 0 0-10.667 5.333 5.333 0 0 0 0 10.667zM24 6.667a1.333 1.333 0 1 0 0 2.667 1.333 1.333 0 0 0 0-2.667z"/><path d="M2.205 5.701a8.003 8.003 0 0 1 3.496-3.496c1.711-.872 3.951-.872 8.432-.872h3.733c4.48 0 6.721 0 8.432.872a8.003 8.003 0 0 1 3.496 3.496c.872 1.711.872 3.951.872 8.432v3.733c0 4.48 0 6.721-.872 8.432a8.003 8.003 0 0 1-3.496 3.496c-1.711.872-3.951.872-8.432.872h-3.733c-4.48 0-6.721 0-8.432-.872a8.003 8.003 0 0 1-3.496-3.496c-.872-1.711-.872-3.951-.872-8.432v-3.733c0-4.48 0-6.721.872-8.432zM17.867 4h-3.733c-2.284 0-3.837.002-5.037.1-1.169.096-1.767.269-2.184.481a5.331 5.331 0 0 0-2.331 2.331c-.213.417-.386 1.015-.481 2.184-.098 1.2-.1 2.753-.1 5.037v3.733c0 2.284.002 3.837.1 5.037.096 1.169.269 1.767.481 2.184a5.337 5.337 0 0 0 2.331 2.331c.417.213 1.015.386 2.184.481 1.2.098 2.753.1 5.037.1h3.733c2.284 0 3.837-.002 5.037-.1 1.169-.095 1.767-.269 2.184-.481a5.337 5.337 0 0 0 2.331-2.331c.213-.417.386-1.015.481-2.184.098-1.2.1-2.753.1-5.037v-3.733c0-2.284-.002-3.837-.1-5.037-.095-1.169-.269-1.767-.481-2.184a5.331 5.331 0 0 0-2.331-2.331c-.417-.213-1.015-.386-2.184-.481-1.2-.098-2.753-.1-5.037-.1z"/></symbol><symbol id="icon-facebook" viewBox="0 0 32 32"><path d="M26.667 1.333H5.334a4 4 0 0 0-4 4v21.333a4 4 0 0 0 4 4h21.333a4 4 0 0 0 4-4V5.333a4 4 0 0 0-4-4zm0 2.667C27.403 4 28 4.597 28 5.333v21.333c0 .736-.597 1.333-1.333 1.333H20v-9.333h2.768c.574 0 1.083-.367 1.265-.912l.591-1.772a1 1 0 0 0-.949-1.316H20v-2.667c0-.667.667-1.333 1.333-1.333H24c.736 0 1.333-.597 1.333-1.333v-.915a.946.946 0 0 0-.692-.927c-1.748-.461-3.308-.461-3.308-.461C18 7.03 16 9.333 16 11.333v3.333h-2.667c-.736 0-1.333.597-1.333 1.333v1.333c0 .736.597 1.333 1.333 1.333H16v9.333H5.333A1.333 1.333 0 0 1 4 26.665V5.332c0-.736.597-1.333 1.333-1.333h21.333z"/></symbol><symbol id="icon-heart" viewBox="0 0 32 32"><path stroke-linecap="round" stroke-linejoin="round" stroke-width="2.667" d="M27.787 6.147a7.326 7.326 0 0 0-10.373 0L16.001 7.56l-1.413-1.413a7.333 7.333 0 0 0-10.374 0 7.333 7.333 0 0 0 0 10.374l11.787 11.787 11.787-11.787a7.345 7.345 0 0 0 2.15-5.187 7.33 7.33 0 0 0-2.15-5.187z"/></symbol><symbol id="icon-close1" viewBox="0 0 32 32"><path stroke-linejoin="round" stroke-linecap="round" stroke-width="2.08" d="M24 8 8 24M8 8l16 16"/></symbol><symbol id="close" viewBox="0 0 32 32"><path d="M32 3.223 28.777 0 16 12.777 3.223 0 0 3.223 12.777 16 0 28.777 3.223 32 16 19.223 28.777 32 32 28.777 19.223 16 32 3.223z"/></symbol><symbol id="icon-Vector12" viewBox="0 0 256 32"><path stroke-width="16" d="M0 16h256"/></symbol><symbol id="icon-Youtube" viewBox="0 0 32 32"><path fill="none" stroke="#fff" style="stroke:var(--color1,#fff)" stroke-width=".8" d="M8 .4h16A7.6 7.6 0 0 1 31.6 8v16a7.6 7.6 0 0 1-7.6 7.6H8A7.6 7.6 0 0 1 .4 24V8A7.6 7.6 0 0 1 8 .4z"/><path fill="#fff" style="fill:var(--color1,#fff)" opacity=".8" d="M20.944 10c-.816-.048-2.496-.096-5.04-.096h-.336c-2.448 0-4.08.048-4.896.144-1.104.096-1.872.384-2.304.768-.384.336-.672.96-.768 1.776-.048.528-.096 1.632-.096 3.312v.24c0 1.584.048 2.688.144 3.216.144.768.384 1.344.864 1.68.48.384 1.296.624 2.448.72.816.048 2.496.096 5.04.096h.336c2.448 0 4.08-.048 4.896-.144 1.104-.096 1.872-.384 2.304-.768.384-.336.672-.96.768-1.776.048-.528.096-1.632.096-3.312v-.24c0-1.584-.048-2.688-.144-3.216-.144-.768-.384-1.344-.864-1.68-.48-.384-1.296-.624-2.448-.72zm-1.872 5.904-5.28 3.168v-6.336l5.28 3.168z"/></symbol><symbol id="icon-Instagram" viewBox="0 0 32 32"><path fill="none" stroke="#fff" style="stroke:var(--color1,#fff)" stroke-width=".8" d="M8 .4h16A7.6 7.6 0 0 1 31.6 8v16a7.6 7.6 0 0 1-7.6 7.6H8A7.6 7.6 0 0 1 .4 24V8A7.6 7.6 0 0 1 8 .4z"/><path fill="#fff" style="fill:var(--color1,#fff)" opacity=".8" d="M23.63 12.854a5.555 5.555 0 0 0-.357-1.887 3.926 3.926 0 0 0-2.246-2.242 5.649 5.649 0 0 0-1.865-.358c-.82-.037-1.081-.047-3.164-.047s-2.35 0-3.164.047a5.653 5.653 0 0 0-1.864.358 3.93 3.93 0 0 0-2.246 2.242 5.584 5.584 0 0 0-.357 1.861c-.037.82-.048 1.08-.048 3.159s0 2.345.048 3.159a5.62 5.62 0 0 0 .357 1.862 3.926 3.926 0 0 0 2.247 2.241 5.605 5.605 0 0 0 1.864.383c.821.037 1.082.048 3.164.048s2.35 0 3.164-.048a5.642 5.642 0 0 0 1.865-.357 3.932 3.932 0 0 0 2.246-2.242 5.585 5.585 0 0 0 .357-1.862c.037-.819.048-1.079.048-3.159-.002-2.079-.002-2.343-.049-3.158zm-7.636 7.065c-2.178 0-3.943-1.762-3.943-3.937s1.765-3.937 3.943-3.937c2.177 0 3.943 1.762 3.943 3.937s-1.766 3.937-3.943 3.937zm4.1-7.101a.917.917 0 1 1 0-1.836.918.918 0 1 1 0 1.836z"/><path fill="#fff" style="fill:var(--color1,#fff)" opacity=".8" d="M15.995 18.386a2.402 2.402 0 1 0 0-4.804 2.402 2.402 0 0 0 0 4.804z"/></symbol><symbol id="icon-Facebook" viewBox="0 0 32 32"><path fill="none" stroke="#fff" style="stroke:var(--color1,#fff)" stroke-width=".8" d="M8 .4h16A7.6 7.6 0 0 1 31.6 8v16a7.6 7.6 0 0 1-7.6 7.6H8A7.6 7.6 0 0 1 .4 24V8A7.6 7.6 0 0 1 8 .4z"/><path fill="#fff" style="fill:var(--color1,#fff)" opacity=".8" d="M18.112 9.184h.576v2.16h-.72c-.288 0-.576 0-.72.144-.144.144-.144.288-.144.624v.768h1.584v1.824h-1.584v7.92h-2.448v-7.968H13.36v-1.824h1.296v-.624c0-1.056.144-1.824.432-2.16.432-.624 1.296-.912 2.592-.912.144.048.288.048.432.048z"/></symbol></defs></svg>