<svg aria-hidden="true" style="position: absolute; width: 0; height: 0; overflow: hidden;" version="1.1" xmlns="http://www.w3.org/2000/svg" xmlns:xlink="http://www.w3.org/1999/xlink">
<defs>
<symbol id="icon-menu" viewBox="0 0 32 32">
<path fill="#fff" style="fill: var(--color1, #fff)" d="M2.667 7.993c0-0.733 0.595-1.327 1.327-1.327h10.68c0.352 0 0.689 0.14 0.938 0.389s0.389 0.586 0.389 0.938c0 0.352-0.14 0.689-0.389 0.938s-0.586 0.389-0.938 0.389h-10.68c-0.352 0-0.689-0.14-0.938-0.389s-0.389-0.586-0.389-0.938zM2.667 16c0-0.733 0.595-1.327 1.327-1.327h24.013c0.352 0 0.689 0.14 0.938 0.389s0.389 0.586 0.389 0.938c0 0.352-0.14 0.689-0.389 0.938s-0.586 0.389-0.938 0.389h-24.013c-0.352 0-0.689-0.14-0.938-0.389s-0.389-0.586-0.389-0.938zM3.993 22.68c-0.352 0-0.689 0.14-0.938 0.389s-0.389 0.586-0.389 0.938c0 0.352 0.14 0.689 0.389 0.938s0.586 0.389 0.938 0.389h16.013c0.352 0 0.689-0.14 0.938-0.389s0.389-0.586 0.389-0.938c0-0.352-0.14-0.689-0.389-0.938s-0.586-0.389-0.938-0.389h-16.013z"></path>
</symbol>
<symbol id="icon-close" viewBox="0 0 32 32">
<path fill="none" stroke="#fff" style="stroke: var(--color1, #fff)" stroke-linejoin="round" stroke-linecap="round" stroke-miterlimit="4" stroke-width="1.7333" d="M24 8l-16 16"></path>
<path fill="none" stroke="#fff" style="stroke: var(--color1, #fff)" stroke-linejoin="round" stroke-linecap="round" stroke-miterlimit="4" stroke-width="1.7333" d="M8 8l16 16"></path>
</symbol>
<symbol id="icon-prev" viewBox="0 0 32 32">
<path fill="none" stroke="#fff" style="stroke: var(--color1, #fff)" stroke-linejoin="miter" stroke-linecap="butt" stroke-miterlimit="4" stroke-width="0.9412" d="M8.471 0.471h15.059c4.418 0 8 3.582 8 8v15.059c0 4.418-3.582 8-8 8h-15.059c-4.418 0-8-3.582-8-8v-15.059c0-4.418 3.582-8 8-8z"></path>
<path fill="none" stroke="#fff" style="stroke: var(--color1, #fff)" stroke-linejoin="round" stroke-linecap="round" stroke-miterlimit="4" stroke-width="0.9412" d="M18.118 20.235l-4.235-4.235 4.235-4.235"></path>
</symbol>
<symbol id="icon-next" viewBox="0 0 32 32">
<path fill="none" stroke="#fff" style="stroke: var(--color1, #fff)" stroke-linejoin="miter" stroke-linecap="butt" stroke-miterlimit="4" stroke-width="0.9412" d="M8.471 0.471h15.059c4.418 0 8 3.582 8 8v15.059c0 4.418-3.582 8-8 8h-15.059c-4.418 0-8-3.582-8-8v-15.059c0-4.418 3.582-8 8-8z"></path>
<path fill="none" stroke="#fff" style="stroke: var(--color1, #fff)" stroke-linejoin="round" stroke-linecap="round" stroke-miterlimit="4" stroke-width="0.9412" d="M13.882 20.235l4.235-4.235-4.235-4.235"></path>
</symbol>
<symbol id="icon-vector-3" viewBox="0 0 640 32">
<path fill="none" stroke="#fff" style="stroke: var(--color1, #fff)" stroke-linejoin="miter" stroke-linecap="butt" stroke-miterlimit="4" stroke-width="16" d="M0 16h640"></path>
</symbol>
<symbol id="icon-youtube" viewBox="0 0 32 32">
<path d="M12.662 9.509c-0.413-0.236-0.92-0.234-1.331 0.004s-0.664 0.678-0.664 1.153v10.667c0 0.475 0.253 0.915 0.664 1.153s0.918 0.24 1.331 0.004l9.333-5.333c0.415-0.237 0.672-0.679 0.672-1.158s-0.256-0.92-0.672-1.158l-9.333-5.333zM18.646 16l-5.313 3.036v-6.072l5.313 3.036z"></path>
<path d="M0 16c0 5 0 7.499 1.273 9.252 0.411 0.566 0.909 1.064 1.475 1.475 1.752 1.273 4.252 1.273 9.252 1.273h8c5 0 7.499 0 9.252-1.273 0.566-0.411 1.064-0.909 1.475-1.475 1.273-1.752 1.273-4.252 1.273-9.252s0-7.499-1.273-9.252c-0.411-0.566-0.909-1.064-1.475-1.475-1.752-1.273-4.252-1.273-9.252-1.273h-8c-5 0-7.499 0-9.252 1.273-0.566 0.411-1.064 0.909-1.475 1.475-1.273 1.752-1.273 4.252-1.273 9.252zM12 6.667h8c2.559 0 4.264 0.004 5.556 0.144 1.242 0.135 1.782 0.369 2.128 0.62 0.339 0.247 0.638 0.545 0.885 0.885 0.251 0.346 0.486 0.886 0.62 2.128 0.14 1.292 0.144 2.997 0.144 5.556s-0.004 4.264-0.144 5.556c-0.135 1.242-0.369 1.782-0.62 2.128-0.247 0.339-0.545 0.638-0.885 0.885-0.346 0.251-0.886 0.486-2.128 0.62-1.292 0.14-2.997 0.144-5.556 0.144h-8c-2.559 0-4.264-0.004-5.556-0.144-1.242-0.135-1.782-0.369-2.128-0.62-0.34-0.247-0.638-0.545-0.885-0.885-0.251-0.346-0.486-0.886-0.62-2.128-0.14-1.292-0.144-2.997-0.144-5.556s0.004-4.264 0.144-5.556c0.135-1.242 0.369-1.782 0.62-2.128 0.247-0.34 0.545-0.638 0.885-0.885 0.346-0.251 0.886-0.486 2.128-0.62 1.292-0.14 2.997-0.144 5.556-0.144z"></path>
</symbol>
<symbol id="icon-twitter" viewBox="0 0 32 32">
<path d="M26.377 5.224c0.465-0.11 0.789-0.218 1.054-0.332 0.372-0.159 0.68-0.35 1.168-0.672 0.409-0.27 0.934-0.294 1.366-0.061s0.701 0.684 0.701 1.174c0 1.441-0.18 2.622-0.595 3.662-0.35 0.874-0.841 1.585-1.429 2.231-0.248 4.484-1.546 8.006-3.531 10.674-2.057 2.765-4.793 4.536-7.678 5.528-2.876 0.989-5.915 1.21-8.638 0.875-2.705-0.333-5.205-1.228-6.948-2.583-0.477-0.371-0.645-1.017-0.409-1.574s0.817-0.884 1.416-0.799c1.715 0.245 3.365-0.145 4.722-0.702-0.267-0.145-0.519-0.303-0.753-0.465-1.237-0.856-2.235-2.018-2.684-2.917-0.186-0.372-0.188-0.809-0.005-1.182 0.094-0.193 0.232-0.357 0.399-0.482-1.806-1.49-2.535-3.551-2.535-4.932 0-0.411 0.189-0.798 0.513-1.051 0.136-0.106 0.29-0.184 0.451-0.23-0.135-0.396-0.24-0.795-0.32-1.182-0.354-1.716-0.323-3.652 0.062-5.193 0.132-0.527 0.57-0.922 1.109-0.997s1.068 0.183 1.34 0.654c1.437 2.49 4.087 4.012 6.553 4.914 1.16 0.424 2.233 0.694 3.038 0.86 0.174-1.627 0.628-2.97 1.326-4.036 0.92-1.406 2.203-2.238 3.582-2.61 2.377-0.64 5.014 0.089 6.724 1.428zM14.331 13.078c-0.913-0.183-2.169-0.492-3.539-0.992-1.81-0.662-3.911-1.693-5.671-3.291 0.032 0.294 0.076 0.586 0.135 0.869 0.295 1.428 0.843 2.228 1.34 2.477 0.608 0.304 0.89 1.017 0.654 1.655-0.319 0.864-1.16 0.934-1.923 0.744 0.614 0.921 1.718 1.838 3.559 2.145 0.635 0.106 1.104 0.65 1.114 1.294s-0.441 1.203-1.072 1.329l-1.161 0.232c0.178 0.154 0.37 0.306 0.575 0.447 0.929 0.643 1.862 0.921 2.668 0.719 0.603-0.151 1.231 0.135 1.512 0.69s0.142 1.23-0.335 1.628c-0.859 0.715-1.861 1.288-2.866 1.764-0.472 0.223-0.999 0.444-1.572 0.638 0.44 0.094 0.899 0.171 1.372 0.229 2.361 0.29 4.988 0.095 7.445-0.75 2.449-0.842 4.712-2.321 6.405-4.597 1.691-2.273 2.871-5.419 3.029-9.691 0.012-0.336 0.152-0.655 0.39-0.893 0.599-0.6 1.095-1.287 1.339-2.105-0.427 0.133-0.907 0.248-1.479 0.357-0.434 0.083-0.881-0.054-1.193-0.367-1.019-1.019-3.035-1.69-4.711-1.239-0.788 0.212-1.505 0.672-2.043 1.494-0.549 0.84-0.97 2.149-0.97 4.134 0 0.377-0.16 0.737-0.44 0.99-0.664 0.599-1.781 0.245-2.562 0.088z"></path>
</symbol>
<symbol id="icon-instagram" viewBox="0 0 32 32">
<path d="M16 24c-4.418 0-8-3.582-8-8s3.582-8 8-8c4.418 0 8 3.582 8 8s-3.582 8-8 8zM16 21.333c2.945 0 5.333-2.388 5.333-5.333s-2.388-5.333-5.333-5.333c-2.946 0-5.333 2.388-5.333 5.333s2.388 5.333 5.333 5.333z"></path>
<path d="M24 6.667c-0.736 0-1.333 0.597-1.333 1.333s0.597 1.333 1.333 1.333c0.736 0 1.333-0.597 1.333-1.333s-0.597-1.333-1.333-1.333z"></path>
<path d="M2.205 5.701c0.767-1.505 1.991-2.729 3.496-3.496 1.711-0.872 3.951-0.872 8.432-0.872h3.733c4.48 0 6.721 0 8.432 0.872 1.505 0.767 2.729 1.991 3.496 3.496 0.872 1.711 0.872 3.951 0.872 8.432v3.733c0 4.48 0 6.721-0.872 8.432-0.767 1.505-1.991 2.729-3.496 3.496-1.711 0.872-3.951 0.872-8.432 0.872h-3.733c-4.48 0-6.721 0-8.432-0.872-1.505-0.767-2.729-1.991-3.496-3.496-0.872-1.711-0.872-3.951-0.872-8.432v-3.733c0-4.48 0-6.721 0.872-8.432zM17.867 4h-3.733c-2.284 0-3.837 0.002-5.037 0.1-1.169 0.096-1.767 0.269-2.184 0.481-1.004 0.511-1.819 1.327-2.331 2.331-0.213 0.417-0.386 1.015-0.481 2.184-0.098 1.2-0.1 2.753-0.1 5.037v3.733c0 2.284 0.002 3.837 0.1 5.037 0.096 1.169 0.269 1.767 0.481 2.184 0.511 1.003 1.327 1.819 2.331 2.331 0.417 0.213 1.015 0.386 2.184 0.481 1.2 0.098 2.753 0.1 5.037 0.1h3.733c2.284 0 3.837-0.002 5.037-0.1 1.169-0.095 1.767-0.269 2.184-0.481 1.003-0.511 1.819-1.327 2.331-2.331 0.213-0.417 0.386-1.015 0.481-2.184 0.098-1.2 0.1-2.753 0.1-5.037v-3.733c0-2.284-0.002-3.837-0.1-5.037-0.095-1.169-0.269-1.767-0.481-2.184-0.511-1.004-1.327-1.819-2.331-2.331-0.417-0.213-1.015-0.386-2.184-0.481-1.2-0.098-2.753-0.1-5.037-0.1z"></path>
</symbol>
<symbol id="icon-facebook" viewBox="0 0 32 32">
<path d="M26.667 1.333h-21.333c-2.209 0-4 1.791-4 4v21.333c0 2.209 1.791 4 4 4h21.333c2.209 0 4-1.791 4-4v-21.333c0-2.209-1.791-4-4-4zM26.667 4c0.736 0 1.333 0.597 1.333 1.333v21.333c0 0.736-0.597 1.333-1.333 1.333h-6.667v-9.333h2.768c0.574 0 1.083-0.367 1.265-0.912l0.591-1.772c0.216-0.648-0.266-1.316-0.949-1.316h-3.675v-2.667c0-0.667 0.667-1.333 1.333-1.333h2.667c0.736 0 1.333-0.597 1.333-1.333v-0.915c0-0.431-0.275-0.817-0.692-0.927-1.748-0.461-3.308-0.461-3.308-0.461-3.333 0-5.333 2.303-5.333 4.303v3.333h-2.667c-0.736 0-1.333 0.597-1.333 1.333v1.333c0 0.736 0.597 1.333 1.333 1.333h2.667v9.333h-10.667c-0.736 0-1.333-0.597-1.333-1.333v-21.333c0-0.736 0.597-1.333 1.333-1.333h21.333z"></path>
</symbol>
<symbol id="icon-heart" viewBox="0 0 32 32">
<path stroke-linecap="round" stroke-linejoin="round" stroke-width="2.667" d="M27.787 6.147a7.326 7.326 0 0 0-10.373 0L16.001 7.56l-1.413-1.413a7.333 7.333 0 0 0-10.374 0 7.333 7.333 0 0 0 0 10.374l11.787 11.787 11.787-11.787a7.345 7.345 0 0 0 2.15-5.187 7.33 7.33 0 0 0-2.15-5.187z"/>
</symbol>
<symbol id="icon-close1" viewBox="0 0 32 32">
<path stroke-linejoin="round" stroke-linecap="round" stroke-miterlimit="4" stroke-width="2.0800" d="M24 8l-16 16"></path>
<path stroke-linejoin="round" stroke-linecap="round" stroke-miterlimit="4" stroke-width="2.0800" d="M8 8l16 16"></path>
</symbol>
<symbol id="close" viewBox="0 0 32 32">
<path d="M32 3.223 28.777 0 16 12.777 3.223 0 0 3.223 12.777 16 0 28.777 3.223 32 16 19.223 28.777 32 32 28.777 19.223 16 32 3.223z"/>
</symbol>
<symbol id="icon-Vector12" viewBox="0 0 256 32">
<path stroke-linejoin="miter" stroke-linecap="butt" stroke-miterlimit="4" stroke-width="16" d="M0 16h256"></path>
</symbol>
<symbol id="icon-Youtube" viewBox="0 0 32 32">
<path fill="none" stroke="#fff" style="stroke: var(--color1, #fff)" stroke-linejoin="miter" stroke-linecap="butt" stroke-miterlimit="4" stroke-width="0.8" d="M8 0.4h16c4.197 0 7.6 3.403 7.6 7.6v16c0 4.197-3.403 7.6-7.6 7.6h-16c-4.197 0-7.6-3.403-7.6-7.6v-16c0-4.197 3.403-7.6 7.6-7.6z"></path>
<path fill="#fff" style="fill: var(--color1, #fff)" opacity="0.8" d="M20.944 10c-0.816-0.048-2.496-0.096-5.040-0.096h-0.336c-2.448 0-4.080 0.048-4.896 0.144-1.104 0.096-1.872 0.384-2.304 0.768-0.384 0.336-0.672 0.96-0.768 1.776-0.048 0.528-0.096 1.632-0.096 3.312v0.24c0 1.584 0.048 2.688 0.144 3.216 0.144 0.768 0.384 1.344 0.864 1.68 0.48 0.384 1.296 0.624 2.448 0.72 0.816 0.048 2.496 0.096 5.040 0.096h0.336c2.448 0 4.080-0.048 4.896-0.144 1.104-0.096 1.872-0.384 2.304-0.768 0.384-0.336 0.672-0.96 0.768-1.776 0.048-0.528 0.096-1.632 0.096-3.312v-0.24c0-1.584-0.048-2.688-0.144-3.216-0.144-0.768-0.384-1.344-0.864-1.68-0.48-0.384-1.296-0.624-2.448-0.72zM19.072 15.904l-5.28 3.168v-6.336l5.28 3.168z"></path>
</symbol>
<symbol id="icon-Instagram" viewBox="0 0 32 32">
<path fill="none" stroke="#fff" style="stroke: var(--color1, #fff)" stroke-linejoin="miter" stroke-linecap="butt" stroke-miterlimit="4" stroke-width="0.8" d="M8 0.4h16c4.197 0 7.6 3.403 7.6 7.6v16c0 4.197-3.403 7.6-7.6 7.6h-16c-4.197 0-7.6-3.403-7.6-7.6v-16c0-4.197 3.403-7.6 7.6-7.6z"></path>
<path fill="#fff" style="fill: var(--color1, #fff)" opacity="0.8" d="M23.63 12.854c-0.009-0.645-0.129-1.284-0.357-1.887-0.4-1.030-1.215-1.844-2.246-2.242-0.596-0.224-1.226-0.344-1.865-0.358-0.82-0.037-1.081-0.047-3.164-0.047s-2.35 0-3.164 0.047c-0.637 0.014-1.268 0.134-1.864 0.358-1.031 0.399-1.847 1.213-2.246 2.242-0.224 0.595-0.345 1.225-0.357 1.861-0.037 0.82-0.048 1.080-0.048 3.159s0 2.345 0.048 3.159c0.013 0.637 0.133 1.265 0.357 1.862 0.4 1.029 1.215 1.843 2.247 2.241 0.594 0.232 1.224 0.363 1.864 0.383 0.821 0.037 1.082 0.048 3.164 0.048s2.35 0 3.164-0.048c0.637-0.013 1.267-0.133 1.865-0.357 1.031-0.399 1.846-1.213 2.246-2.242 0.224-0.596 0.345-1.224 0.357-1.862 0.037-0.819 0.048-1.079 0.048-3.159-0.002-2.079-0.002-2.343-0.049-3.158zM15.994 19.919c-2.178 0-3.943-1.762-3.943-3.937s1.765-3.937 3.943-3.937c2.177 0 3.943 1.762 3.943 3.937s-1.766 3.937-3.943 3.937zM20.094 12.818c-0.509 0-0.919-0.41-0.919-0.918s0.41-0.918 0.919-0.918c0.508 0 0.919 0.41 0.919 0.918s-0.411 0.918-0.919 0.918z"></path>
<path fill="#fff" style="fill: var(--color1, #fff)" opacity="0.8" d="M15.995 18.386c1.327 0 2.402-1.076 2.402-2.402s-1.076-2.402-2.402-2.402c-1.327 0-2.402 1.076-2.402 2.402s1.076 2.402 2.402 2.402z"></path>
</symbol>
<symbol id="icon-Facebook" viewBox="0 0 32 32">
<path fill="none" stroke="#fff" style="stroke: var(--color1, #fff)" stroke-linejoin="miter" stroke-linecap="butt" stroke-miterlimit="4" stroke-width="0.8" d="M8 0.4h16c4.197 0 7.6 3.403 7.6 7.6v16c0 4.197-3.403 7.6-7.6 7.6h-16c-4.197 0-7.6-3.403-7.6-7.6v-16c0-4.197 3.403-7.6 7.6-7.6z"></path>
<path fill="#fff" style="fill: var(--color1, #fff)" opacity="0.8" d="M18.112 9.184c0.144 0 0.288 0 0.576 0v2.16c-0.144 0-0.432 0-0.72 0s-0.576 0-0.72 0.144c-0.144 0.144-0.144 0.288-0.144 0.624 0 0.288 0 0.48 0 0.768h1.584v1.824h-1.584v7.92h-2.448v-7.968h-1.296v-1.824h1.296v-0.624c0-1.056 0.144-1.824 0.432-2.16 0.432-0.624 1.296-0.912 2.592-0.912 0.144 0.048 0.288 0.048 0.432 0.048z"></path>
</symbol>
</defs>
</svg>
